<svg width="29" height="29" viewBox="0 0 29 29" fill="none" xmlns="http://www.w3.org/2000/svg">
<path d="M14.5 0C11.6322 0 8.82875 0.85041 6.44424 2.44369C4.05972 4.03697 2.20122 6.30156 1.10375 8.95109C0.00628262 11.6006 -0.280866 14.5161 0.27862 17.3288C0.838105 20.1415 2.2191 22.7252 4.24696 24.753C6.27482 26.7809 8.85847 28.1619 11.6712 28.7214C14.4839 29.2809 17.3994 28.9937 20.0489 27.8962C22.6984 26.7988 24.963 24.9403 26.5563 22.5558C28.1496 20.1712 29 17.3678 29 14.5C28.9959 10.6556 27.467 6.96983 24.7486 4.25143C22.0302 1.53304 18.3444 0.00405975 14.5 0ZM14.5 26.7692C12.0734 26.7692 9.70125 26.0496 7.68358 24.7015C5.66592 23.3533 4.09334 21.4371 3.16471 19.1952C2.23609 16.9533 1.99311 14.4864 2.46652 12.1064C2.93994 9.72639 4.10847 7.54023 5.82435 5.82434C7.54023 4.10846 9.7264 2.93993 12.1064 2.46652C14.4864 1.99311 16.9533 2.23608 19.1952 3.16471C21.4371 4.09334 23.3533 5.66591 24.7015 7.68358C26.0497 9.70124 26.7692 12.0734 26.7692 14.5C26.7655 17.7529 25.4717 20.8714 23.1716 23.1716C20.8715 25.4717 17.7529 26.7655 14.5 26.7692ZM18.6353 13.7109C18.739 13.8145 18.8213 13.9375 18.8774 14.0729C18.9335 14.2083 18.9624 14.3534 18.9624 14.5C18.9624 14.6466 18.9335 14.7917 18.8774 14.9271C18.8213 15.0625 18.739 15.1855 18.6353 15.2891L13.0584 20.8661C12.9547 20.9697 12.8317 21.0519 12.6963 21.108C12.5609 21.1641 12.4158 21.1929 12.2692 21.1929C12.1227 21.1929 11.9776 21.1641 11.8422 21.108C11.7068 21.0519 11.5837 20.9697 11.4801 20.8661C11.3765 20.7624 11.2943 20.6394 11.2382 20.504C11.1821 20.3686 11.1532 20.2235 11.1532 20.0769C11.1532 19.9304 11.1821 19.7852 11.2382 19.6498C11.2943 19.5144 11.3765 19.3914 11.4801 19.2878L16.2693 14.5L11.4801 9.71221C11.2708 9.50292 11.1532 9.21906 11.1532 8.92307C11.1532 8.62709 11.2708 8.34323 11.4801 8.13394C11.6894 7.92465 11.9733 7.80707 12.2692 7.80707C12.5652 7.80707 12.8491 7.92465 13.0584 8.13394L18.6353 13.7109Z" fill="black"/>
</svg>
