<svg width="105" height="105" viewBox="0 0 105 105" fill="none" xmlns="http://www.w3.org/2000/svg">
<ellipse cx="51.5" cy="52" rx="47.5" ry="47" fill="#FFA844"/>
<path d="M52.5 0C42.1165 0 31.9662 3.07907 23.3326 8.84784C14.699 14.6166 7.96995 22.816 3.99635 32.4091C0.0227474 42.0022 -1.01693 52.5582 1.0088 62.7422C3.03452 72.9262 8.03466 82.2808 15.3769 89.6231C22.7192 96.9653 32.0738 101.965 42.2578 103.991C52.4418 106.017 62.9978 104.977 72.5909 101.004C82.184 97.0301 90.3834 90.301 96.1522 81.6674C101.921 73.0338 105 62.8835 105 52.5C104.985 38.5806 99.4493 25.2356 89.6069 15.3931C79.7644 5.55065 66.4194 0.0146991 52.5 0ZM52.5 96.9231C43.714 96.9231 35.1252 94.3177 27.8199 89.4364C20.5145 84.5552 14.8207 77.6172 11.4584 69.5C8.09617 61.3827 7.21645 52.4507 8.93052 43.8335C10.6446 35.2162 14.8755 27.3008 21.0882 21.0881C27.3008 14.8755 35.2163 10.6446 43.8335 8.9305C52.4507 7.21642 61.3827 8.09615 69.5 11.4584C77.6172 14.8207 84.5552 20.5145 89.4364 27.8199C94.3177 35.1252 96.9231 43.7139 96.9231 52.5C96.9097 64.2776 92.2252 75.569 83.8971 83.8971C75.5691 92.2251 64.2776 96.9097 52.5 96.9231ZM76.8519 49.0774L44.5442 28.8851C43.9331 28.5031 43.2308 28.2916 42.5104 28.2726C41.7899 28.2536 41.0775 28.4278 40.447 28.777C39.8166 29.1262 39.2911 29.6378 38.925 30.2586C38.559 30.8795 38.3658 31.587 38.3654 32.3077V72.6923C38.3658 73.413 38.559 74.1205 38.925 74.7413C39.2911 75.3622 39.8166 75.8738 40.447 76.223C41.0775 76.5722 41.7899 76.7463 42.5104 76.7273C43.2308 76.7083 43.9331 76.4969 44.5442 76.1149L76.8519 55.9226C77.4319 55.5594 77.91 55.0547 78.2415 54.4561C78.5729 53.8574 78.7468 53.1843 78.7468 52.5C78.7468 51.8157 78.5729 51.1426 78.2415 50.5439C77.91 49.9453 77.4319 49.4406 76.8519 49.0774ZM46.4423 65.4079V39.5921L67.094 52.5L46.4423 65.4079Z" fill="#FFA844"/>
<path d="M75.6232 48.3936C78.6316 50.3791 78.6145 54.799 75.5907 56.761L45.609 76.2161C42.2752 78.3795 37.8719 75.9766 37.8873 72.0024L38.0392 32.8602C38.0546 28.886 42.4764 26.5174 45.7933 28.7065L75.6232 48.3936Z" fill="white"/>
</svg>
