<svg width="29" height="29" viewBox="0 0 29 29" fill="none" xmlns="http://www.w3.org/2000/svg">
<path d="M14.5 0C11.6322 0 8.82875 0.85041 6.44424 2.44369C4.05972 4.03697 2.20122 6.30156 1.10375 8.95109C0.00628262 11.6006 -0.280866 14.5161 0.27862 17.3288C0.838106 20.1415 2.2191 22.7252 4.24696 24.753C6.27482 26.7809 8.85847 28.1619 11.6712 28.7214C14.4839 29.2809 17.3994 28.9937 20.0489 27.8962C22.6984 26.7988 24.963 24.9403 26.5563 22.5558C28.1496 20.1712 29 17.3678 29 14.5C28.9956 10.6557 27.4665 6.97016 24.7482 4.25184C22.0298 1.53352 18.3443 0.00442805 14.5 0ZM26.7692 14.5C26.7702 15.6315 26.6139 16.7577 26.305 17.8461H20.9358C21.2778 15.6285 21.2778 13.3715 20.9358 11.1538H26.305C26.6139 12.2423 26.7702 13.3685 26.7692 14.5ZM10.875 20.0769H18.125C17.4108 22.4173 16.1708 24.5633 14.5 26.351C12.8298 24.5628 11.59 22.4169 10.875 20.0769ZM10.3313 17.8461C9.94832 15.6318 9.94832 13.3682 10.3313 11.1538H18.6799C19.0628 13.3682 19.0628 15.6318 18.6799 17.8461H10.3313ZM2.23078 14.5C2.2298 13.3685 2.38606 12.2423 2.69505 11.1538H8.06423C7.72218 13.3715 7.72218 15.6285 8.06423 17.8461H2.69505C2.38606 16.7577 2.2298 15.6315 2.23078 14.5ZM18.125 8.92307H10.875C11.5893 6.58273 12.8292 4.4367 14.5 2.64904C16.1702 4.43717 17.41 6.58305 18.125 8.92307ZM25.421 8.92307H20.4548C19.8288 6.62665 18.7739 4.46945 17.3456 2.56538C19.0713 2.97993 20.6869 3.76272 22.0817 4.86009C23.4765 5.95746 24.6176 7.34346 25.4266 8.92307H25.421ZM11.6544 2.56538C10.2261 4.46945 9.17118 6.62665 8.54524 8.92307H3.57342C4.38245 7.34346 5.52348 5.95746 6.9183 4.86009C8.31311 3.76272 9.92872 2.97993 11.6544 2.56538ZM3.57342 20.0769H8.54524C9.17118 22.3733 10.2261 24.5305 11.6544 26.4346C9.92872 26.0201 8.31311 25.2373 6.9183 24.1399C5.52348 23.0425 4.38245 21.6565 3.57342 20.0769ZM17.3456 26.4346C18.7739 24.5305 19.8288 22.3733 20.4548 20.0769H25.4266C24.6176 21.6565 23.4765 23.0425 22.0817 24.1399C20.6869 25.2373 19.0713 26.0201 17.3456 26.4346Z" fill="white"/>
</svg>
