<svg width="30" height="30" viewBox="0 0 30 30" fill="none" xmlns="http://www.w3.org/2000/svg">
<path d="M29.7384 5.95355C29.6341 5.82875 29.5037 5.72837 29.3563 5.6595C29.209 5.59063 29.0483 5.55495 28.8857 5.55498H6.48261L5.63826 0.912405C5.59176 0.656414 5.45688 0.424866 5.25715 0.258127C5.05742 0.0913887 4.80551 3.76033e-05 4.54533 0H1.11099C0.816335 0 0.533751 0.117051 0.325401 0.325403C0.11705 0.533755 0 0.816341 0 1.111C0 1.40565 0.11705 1.68824 0.325401 1.89659C0.533751 2.10494 0.816335 2.22199 1.11099 2.22199H3.61071L7.16032 21.7047C7.26488 22.2825 7.52022 22.8224 7.90051 23.2698C7.37564 23.76 6.99679 24.3861 6.80599 25.0785C6.61519 25.7709 6.61989 26.5027 6.81956 27.1926C7.01924 27.8825 7.40608 28.5036 7.93721 28.9871C8.46834 29.4705 9.12299 29.7975 9.82857 29.9316C10.5342 30.0657 11.2631 30.0018 11.9346 29.7469C12.6061 29.4921 13.1938 29.0562 13.6327 28.4877C14.0716 27.9192 14.3445 27.2402 14.421 26.5261C14.4976 25.8119 14.3749 25.0905 14.0665 24.4419H20.3741C20.1256 24.9622 19.997 25.5317 19.9978 26.1084C19.9978 26.8775 20.2258 27.6293 20.6531 28.2687C21.0804 28.9082 21.6877 29.4066 22.3982 29.7009C23.1087 29.9952 23.8906 30.0722 24.6448 29.9222C25.3991 29.7721 26.092 29.4018 26.6358 28.858C27.1796 28.3141 27.5499 27.6213 27.7 26.867C27.85 26.1127 27.773 25.3309 27.4787 24.6203C27.1844 23.9098 26.686 23.3025 26.0465 22.8752C25.4071 22.448 24.6553 22.2199 23.8862 22.2199H10.4391C10.1789 22.2199 9.92703 22.1285 9.7273 21.9618C9.52757 21.795 9.39269 21.5635 9.34619 21.3075L8.90596 18.8869H25.0153C25.7958 18.8868 26.5516 18.6128 27.1507 18.1125C27.7499 17.6123 28.1546 16.9177 28.2941 16.1497L29.9828 6.86456C30.0114 6.70408 30.0043 6.53927 29.9621 6.38183C29.9198 6.22439 29.8434 6.07817 29.7384 5.95355ZM12.2209 26.1084C12.2209 26.438 12.1231 26.7602 11.94 27.0342C11.7569 27.3083 11.4966 27.5219 11.1921 27.648C10.8876 27.7742 10.5525 27.8072 10.2293 27.7429C9.906 27.6786 9.60906 27.5198 9.376 27.2868C9.14294 27.0537 8.98422 26.7568 8.91992 26.4335C8.85562 26.1102 8.88862 25.7752 9.01476 25.4707C9.14089 25.1661 9.35449 24.9059 9.62854 24.7228C9.90259 24.5396 10.2248 24.4419 10.5544 24.4419C10.9964 24.4419 11.4202 24.6175 11.7328 24.93C12.0453 25.2425 12.2209 25.6664 12.2209 26.1084ZM25.5527 26.1084C25.5527 26.438 25.455 26.7602 25.2719 27.0342C25.0888 27.3083 24.8285 27.5219 24.524 27.648C24.2195 27.7742 23.8844 27.8072 23.5611 27.7429C23.2379 27.6786 22.9409 27.5198 22.7079 27.2868C22.4748 27.0537 22.3161 26.7568 22.2518 26.4335C22.1875 26.1102 22.2205 25.7752 22.3466 25.4707C22.4727 25.1661 22.6863 24.9059 22.9604 24.7228C23.2344 24.5396 23.5566 24.4419 23.8862 24.4419C24.3282 24.4419 24.7521 24.6175 25.0646 24.93C25.3771 25.2425 25.5527 25.6664 25.5527 26.1084ZM26.1082 15.7525C26.0616 16.0092 25.9261 16.2413 25.7255 16.4081C25.5249 16.575 25.272 16.6659 25.0111 16.6649H8.50183L6.88674 7.77697H27.5539L26.1082 15.7525Z" fill="white"/>
</svg>
