<svg width="33" height="28" viewBox="0 0 33 28" fill="none" xmlns="http://www.w3.org/2000/svg">
<path d="M31.8214 0H21.2143C20.2994 0 19.3972 0.210846 18.5789 0.615841C17.7607 1.02084 17.0489 1.60886 16.5 2.33333C15.9511 1.60886 15.2393 1.02084 14.4211 0.615841C13.6028 0.210846 12.7006 0 11.7857 0H1.17857C0.865995 0 0.566221 0.122917 0.345196 0.341709C0.124171 0.560501 0 0.857247 0 1.16667V22.1667C0 22.4761 0.124171 22.7728 0.345196 22.9916C0.566221 23.2104 0.865995 23.3333 1.17857 23.3333H11.7857C12.7234 23.3333 13.6228 23.7021 14.2858 24.3585C14.9489 25.0148 15.3214 25.9051 15.3214 26.8333C15.3214 27.1428 15.4456 27.4395 15.6666 27.6583C15.8876 27.8771 16.1874 28 16.5 28C16.8126 28 17.1124 27.8771 17.3334 27.6583C17.5544 27.4395 17.6786 27.1428 17.6786 26.8333C17.6786 25.9051 18.0511 25.0148 18.7142 24.3585C19.3772 23.7021 20.2766 23.3333 21.2143 23.3333H31.8214C32.134 23.3333 32.4338 23.2104 32.6548 22.9916C32.8758 22.7728 33 22.4761 33 22.1667V1.16667C33 0.857247 32.8758 0.560501 32.6548 0.341709C32.4338 0.122917 32.134 0 31.8214 0ZM11.7857 21H2.35714V2.33333H11.7857C12.7234 2.33333 13.6228 2.70208 14.2858 3.35846C14.9489 4.01484 15.3214 4.90508 15.3214 5.83333V22.1667C14.3024 21.4076 13.0611 20.998 11.7857 21ZM30.6429 21H21.2143C19.9389 20.998 18.6976 21.4076 17.6786 22.1667V5.83333C17.6786 4.90508 18.0511 4.01484 18.7142 3.35846C19.3772 2.70208 20.2766 2.33333 21.2143 2.33333H30.6429V21ZM21.2143 5.83333H27.1071C27.4197 5.83333 27.7195 5.95625 27.9405 6.17504C28.1615 6.39383 28.2857 6.69058 28.2857 7C28.2857 7.30942 28.1615 7.60616 27.9405 7.82496C27.7195 8.04375 27.4197 8.16667 27.1071 8.16667H21.2143C20.9017 8.16667 20.6019 8.04375 20.3809 7.82496C20.1599 7.60616 20.0357 7.30942 20.0357 7C20.0357 6.69058 20.1599 6.39383 20.3809 6.17504C20.6019 5.95625 20.9017 5.83333 21.2143 5.83333ZM28.2857 11.6667C28.2857 11.9761 28.1615 12.2728 27.9405 12.4916C27.7195 12.7104 27.4197 12.8333 27.1071 12.8333H21.2143C20.9017 12.8333 20.6019 12.7104 20.3809 12.4916C20.1599 12.2728 20.0357 11.9761 20.0357 11.6667C20.0357 11.3572 20.1599 11.0605 20.3809 10.8417C20.6019 10.6229 20.9017 10.5 21.2143 10.5H27.1071C27.4197 10.5 27.7195 10.6229 27.9405 10.8417C28.1615 11.0605 28.2857 11.3572 28.2857 11.6667ZM28.2857 16.3333C28.2857 16.6428 28.1615 16.9395 27.9405 17.1583C27.7195 17.3771 27.4197 17.5 27.1071 17.5H21.2143C20.9017 17.5 20.6019 17.3771 20.3809 17.1583C20.1599 16.9395 20.0357 16.6428 20.0357 16.3333C20.0357 16.0239 20.1599 15.7272 20.3809 15.5084C20.6019 15.2896 20.9017 15.1667 21.2143 15.1667H27.1071C27.4197 15.1667 27.7195 15.2896 27.9405 15.5084C28.1615 15.7272 28.2857 16.0239 28.2857 16.3333Z" fill="white"/>
</svg>
