<svg width="75" height="82" viewBox="0 0 75 82" fill="none" xmlns="http://www.w3.org/2000/svg">
<path d="M68.1818 0H51.1364C49.3281 0 47.5938 0.719938 46.3152 2.00144C45.0365 3.28294 44.3182 5.02102 44.3182 6.83333V75.1667C44.3182 76.979 45.0365 78.7171 46.3152 79.9986C47.5938 81.2801 49.3281 82 51.1364 82H68.1818C69.9901 82 71.7243 81.2801 73.003 79.9986C74.2817 78.7171 75 76.979 75 75.1667V6.83333C75 5.02102 74.2817 3.28294 73.003 2.00144C71.7243 0.719938 69.9901 0 68.1818 0ZM68.1818 75.1667H51.1364V6.83333H68.1818V75.1667ZM23.8636 0H6.81818C5.00989 0 3.27566 0.719938 1.997 2.00144C0.718342 3.28294 0 5.02102 0 6.83333V75.1667C0 76.979 0.718342 78.7171 1.997 79.9986C3.27566 81.2801 5.00989 82 6.81818 82H23.8636C25.6719 82 27.4062 81.2801 28.6848 79.9986C29.9635 78.7171 30.6818 76.979 30.6818 75.1667V6.83333C30.6818 5.02102 29.9635 3.28294 28.6848 2.00144C27.4062 0.719938 25.6719 0 23.8636 0ZM23.8636 75.1667H6.81818V6.83333H23.8636V75.1667Z" fill="#FFA844"/>
</svg>
