<svg width="30" height="30" viewBox="0 0 30 30" fill="none" xmlns="http://www.w3.org/2000/svg">
<path d="M15 0C12.0333 0 9.13319 0.879735 6.66645 2.52796C4.19971 4.17618 2.27713 6.51886 1.14181 9.25975C0.00649927 12.0006 -0.290551 15.0166 0.288227 17.9264C0.867006 20.8361 2.29562 23.5088 4.3934 25.6066C6.49119 27.7044 9.16393 29.133 12.0736 29.7118C14.9834 30.2906 17.9994 29.9935 20.7403 28.8582C23.4811 27.7229 25.8238 25.8003 27.472 23.3335C29.1203 20.8668 30 17.9667 30 15C29.9958 11.023 28.4141 7.21017 25.602 4.39804C22.7898 1.5859 18.977 0.00419974 15 0ZM15 27.6923C12.4897 27.6923 10.0358 26.9479 7.94854 25.5533C5.8613 24.1586 4.23449 22.1763 3.27384 19.8571C2.31319 17.5379 2.06184 14.9859 2.55158 12.5239C3.04131 10.0618 4.25014 7.80023 6.02519 6.02518C7.80024 4.25013 10.0618 3.04131 12.5239 2.55157C14.9859 2.06184 17.5379 2.31319 19.8571 3.27384C22.1764 4.23449 24.1586 5.86129 25.5533 7.94853C26.9479 10.0358 27.6923 12.4897 27.6923 15C27.6885 18.365 26.35 21.5912 23.9706 23.9706C21.5912 26.35 18.365 27.6885 15 27.6923ZM18.124 10.0471L13.1697 15L18.124 19.9529C18.2312 20.0601 18.3163 20.1874 18.3743 20.3274C18.4323 20.4675 18.4622 20.6176 18.4622 20.7692C18.4622 20.9208 18.4323 21.071 18.3743 21.211C18.3163 21.3511 18.2312 21.4784 18.124 21.5856C18.0168 21.6928 17.8896 21.7778 17.7495 21.8358C17.6094 21.8939 17.4593 21.9237 17.3077 21.9237C17.1561 21.9237 17.006 21.8939 16.8659 21.8358C16.7258 21.7778 16.5986 21.6928 16.4913 21.5856L10.7221 15.8163C10.6148 15.7092 10.5297 15.5819 10.4717 15.4419C10.4136 15.3018 10.3837 15.1516 10.3837 15C10.3837 14.8484 10.4136 14.6982 10.4717 14.5581C10.5297 14.4181 10.6148 14.2908 10.7221 14.1837L16.4913 8.41442C16.5986 8.30722 16.7258 8.22218 16.8659 8.16416C17.006 8.10614 17.1561 8.07628 17.3077 8.07628C17.4593 8.07628 17.6094 8.10614 17.7495 8.16416C17.8896 8.22218 18.0168 8.30722 18.124 8.41442C18.2312 8.52162 18.3163 8.6489 18.3743 8.78896C18.4323 8.92903 18.4622 9.07916 18.4622 9.23077C18.4622 9.38238 18.4323 9.5325 18.3743 9.67257C18.3163 9.81264 18.2312 9.93991 18.124 10.0471Z" fill="black"/>
</svg>
